<?xml version="1.0" encoding="utf-8"?>
<!-- Generator: Adobe Illustrator 21.0.0, SVG Export Plug-In . SVG Version: 6.00 Build 0)  -->
<svg version="1.1" id="Layer_1" xmlns="http://www.w3.org/2000/svg" xmlns:xlink="http://www.w3.org/1999/xlink" x="0px" y="0px"
	 viewBox="0 0 161.3 84" style="enable-background:new 0 0 161.3 84;" xml:space="preserve">
<style type="text/css">
	.st0{fill:url(#SVGID_1_);}
	.st1{fill:url(#SVGID_2_);}
	.st2{fill:url(#SVGID_3_);}
	.st3{fill:#343434;}
</style>
<g>
	<linearGradient id="SVGID_1_" gradientUnits="userSpaceOnUse" x1="18.1" y1="41.8" x2="45.9" y2="41.8">
		<stop  offset="0" style="stop-color:#4285F4"/>
		<stop  offset="1" style="stop-color:#34A853"/>
	</linearGradient>
	<polygon class="st0" points="34.5,37 42.5,5.2 18.1,46.6 29.5,46.6 21.5,78.4 45.9,37 	"/>
	<linearGradient id="SVGID_2_" gradientUnits="userSpaceOnUse" x1="2" y1="40.45" x2="34.4" y2="40.45">
		<stop  offset="0" style="stop-color:#4285F4"/>
		<stop  offset="1" style="stop-color:#34A853"/>
	</linearGradient>
	<path class="st1" d="M8,41.8c0-12.8,10.2-23.4,22.9-24l3.5-6c-0.8-0.1-1.6-0.1-2.4-0.1c-8,0-15.5,3.1-21.2,8.8S2,33.7,2,41.7
		s3.1,15.5,8.8,21.2c2.7,2.7,5.8,4.8,9.3,6.3l1.5-5.9C13.5,59.5,8,51.3,8,41.8z"/>
	<linearGradient id="SVGID_3_" gradientUnits="userSpaceOnUse" x1="29.5" y1="43.1" x2="61.9023" y2="43.1">
		<stop  offset="0" style="stop-color:#4285F4"/>
		<stop  offset="1" style="stop-color:#34A853"/>
	</linearGradient>
	<path class="st2" d="M53.2,20.6c-2.7-2.7-5.8-4.8-9.3-6.3l-1.5,5.9c8,3.9,13.5,12.1,13.5,21.6c0,12.8-10.2,23.4-22.9,24l-3.5,6
		c0.8,0.1,1.6,0.1,2.4,0.1c8,0,15.5-3.1,21.2-8.8s8.8-13.2,8.8-21.2C62,33.8,58.9,26.3,53.2,20.6z"/>
	<g>
		<g>
			<g>
				<path class="st3" d="M66.6,25.3h1.5V38h7.8v1.3h-9.3V25.3z"/>
				<path class="st3" d="M79.5,38.7c-0.8-0.5-1.5-1.1-1.9-1.9C77.1,36,76.9,35,76.9,34s0.2-1.9,0.7-2.8c0.5-0.8,1.1-1.4,1.9-1.9
					s1.7-0.7,2.7-0.7s1.9,0.2,2.7,0.7c0.8,0.5,1.5,1.1,1.9,1.9c0.5,0.8,0.7,1.7,0.7,2.8s-0.2,1.9-0.7,2.8c-0.5,0.8-1.1,1.5-1.9,1.9
					c-0.8,0.5-1.7,0.7-2.7,0.7S80.3,39.1,79.5,38.7z M84.2,37.6c0.6-0.3,1.1-0.8,1.4-1.5c0.3-0.6,0.5-1.3,0.5-2.1
					c0-0.8-0.2-1.5-0.5-2.1c-0.3-0.6-0.8-1.1-1.4-1.5c-0.6-0.3-1.3-0.5-2-0.5s-1.4,0.2-2,0.5s-1.1,0.8-1.4,1.5
					c-0.3,0.6-0.5,1.3-0.5,2.1c0,0.8,0.2,1.5,0.5,2.1s0.8,1.1,1.4,1.5s1.3,0.5,2,0.5S83.6,37.9,84.2,37.6z"/>
				<path class="st3" d="M100.2,28.8V38c0,1.8-0.4,3.1-1.3,4s-2.2,1.3-4,1.3c-1,0-1.9-0.1-2.8-0.4c-0.9-0.3-1.6-0.7-2.1-1.2l0.7-1.1
					c0.5,0.5,1.1,0.8,1.9,1.1s1.5,0.4,2.3,0.4c1.3,0,2.3-0.3,2.9-0.9c0.6-0.6,0.9-1.6,0.9-2.9V37c-0.4,0.7-1,1.2-1.7,1.5
					S95.5,39,94.6,39c-1,0-1.9-0.2-2.7-0.6s-1.4-1-1.9-1.8s-0.7-1.7-0.7-2.6c0-1,0.2-1.9,0.7-2.6c0.5-0.8,1.1-1.4,1.9-1.8
					s1.7-0.6,2.7-0.6c0.9,0,1.7,0.2,2.4,0.5c0.7,0.4,1.3,0.9,1.7,1.6v-2h1.5V28.8z M96.9,37.1c0.6-0.3,1.1-0.8,1.4-1.4
					c0.3-0.6,0.5-1.3,0.5-2s-0.2-1.4-0.5-2c-0.3-0.6-0.8-1-1.4-1.4c-0.6-0.3-1.3-0.5-2.1-0.5c-0.8,0-1.4,0.2-2,0.5s-1.1,0.8-1.4,1.4
					c-0.3,0.6-0.5,1.3-0.5,2s0.2,1.4,0.5,2s0.8,1,1.4,1.4c0.6,0.3,1.3,0.5,2,0.5C95.6,37.6,96.3,37.5,96.9,37.1z"/>
				<path class="st3" d="M105.8,38.7c-0.8-0.5-1.5-1.1-1.9-1.9c-0.5-0.8-0.7-1.7-0.7-2.8s0.2-1.9,0.7-2.8c0.5-0.8,1.1-1.4,1.9-1.9
					s1.7-0.7,2.7-0.7s1.9,0.2,2.7,0.7c0.8,0.5,1.5,1.1,1.9,1.9c0.5,0.8,0.7,1.7,0.7,2.8s-0.2,1.9-0.7,2.8c-0.5,0.8-1.1,1.5-1.9,1.9
					c-0.8,0.5-1.7,0.7-2.7,0.7S106.6,39.1,105.8,38.7z M110.5,37.6c0.6-0.3,1.1-0.8,1.4-1.5c0.3-0.6,0.5-1.3,0.5-2.1
					c0-0.8-0.2-1.5-0.5-2.1c-0.3-0.6-0.8-1.1-1.4-1.5c-0.6-0.3-1.3-0.5-2-0.5s-1.4,0.2-2,0.5s-1.1,0.8-1.4,1.5
					c-0.3,0.6-0.5,1.3-0.5,2.1c0,0.8,0.2,1.5,0.5,2.1s0.8,1.1,1.4,1.5c0.6,0.3,1.3,0.5,2,0.5S109.9,37.9,110.5,37.6z"/>
			</g>
		</g>
	</g>
</g>
<g>
	<path class="st3" d="M69.5,51.6h-3.8v-2.2H76v2.2h-3.8v9.7h-2.8V51.6z"/>
	<path class="st3" d="M85.3,57.5h-6.9c0.1,0.6,0.4,1,0.9,1.3c0.5,0.3,1,0.5,1.7,0.5c0.5,0,0.9-0.1,1.3-0.2c0.4-0.1,0.7-0.4,1-0.7
		l1.4,1.5c-0.9,1-2.1,1.5-3.8,1.5c-1,0-1.9-0.2-2.7-0.6c-0.8-0.4-1.4-1-1.8-1.7c-0.4-0.7-0.6-1.5-0.6-2.4c0-0.9,0.2-1.7,0.6-2.4
		s1-1.3,1.8-1.7s1.6-0.6,2.5-0.6c0.9,0,1.7,0.2,2.4,0.6c0.7,0.4,1.3,0.9,1.7,1.7c0.4,0.7,0.6,1.6,0.6,2.5
		C85.4,56.8,85.3,57,85.3,57.5z M79.1,54.5c-0.4,0.3-0.7,0.8-0.7,1.4h4.5c-0.1-0.6-0.3-1-0.7-1.4c-0.4-0.3-0.9-0.5-1.5-0.5
		C80,54,79.5,54.2,79.1,54.5z"/>
	<path class="st3" d="M88.9,60.8c-0.8-0.4-1.4-1-1.8-1.7c-0.4-0.7-0.7-1.5-0.7-2.4c0-0.9,0.2-1.7,0.7-2.4s1-1.3,1.8-1.7
		s1.7-0.6,2.6-0.6c1,0,1.8,0.2,2.5,0.6c0.7,0.4,1.2,1,1.6,1.7l-2.1,1.1c-0.5-0.8-1.2-1.3-2.1-1.3c-0.7,0-1.3,0.2-1.7,0.7
		s-0.7,1.1-0.7,1.9s0.2,1.4,0.7,1.9s1,0.7,1.7,0.7c0.9,0,1.6-0.4,2.1-1.3l2.1,1.1c-0.3,0.7-0.9,1.3-1.6,1.7
		c-0.7,0.4-1.6,0.6-2.5,0.6C90.6,61.4,89.7,61.2,88.9,60.8z"/>
	<path class="st3" d="M105.4,53c0.7,0.7,1,1.7,1,3v5.2h-2.7v-4.8c0-0.7-0.2-1.3-0.5-1.6c-0.3-0.4-0.8-0.5-1.4-0.5
		c-0.7,0-1.2,0.2-1.6,0.6c-0.4,0.4-0.6,1-0.6,1.8v4.5h-2.7V48.7h2.7v4.4c0.4-0.4,0.8-0.6,1.3-0.8c0.5-0.2,1-0.3,1.6-0.3
		C103.8,52,104.7,52.4,105.4,53z"/>
	<path class="st3" d="M124.8,49.4v11.9h-2.3l-5.9-7.2v7.2h-2.7V49.4h2.3l5.9,7.2v-7.2H124.8z"/>
	<path class="st3" d="M136.3,57.5h-6.9c0.1,0.6,0.4,1,0.9,1.3c0.5,0.3,1,0.5,1.7,0.5c0.5,0,0.9-0.1,1.3-0.2s0.7-0.4,1-0.7l1.4,1.5
		c-0.9,1-2.1,1.5-3.8,1.5c-1,0-1.9-0.2-2.7-0.6c-0.8-0.4-1.4-1-1.8-1.7c-0.4-0.7-0.6-1.5-0.6-2.4c0-0.9,0.2-1.7,0.6-2.4
		s1-1.3,1.8-1.7s1.6-0.6,2.5-0.6c0.9,0,1.7,0.2,2.4,0.6c0.7,0.4,1.3,0.9,1.7,1.7c0.4,0.7,0.6,1.6,0.6,2.5
		C136.4,56.8,136.3,57,136.3,57.5z M130.1,54.5c-0.4,0.3-0.7,0.8-0.7,1.4h4.5c-0.1-0.6-0.3-1-0.7-1.4c-0.4-0.3-0.9-0.5-1.5-0.5
		C131,54,130.5,54.2,130.1,54.5z"/>
	<path class="st3" d="M152.6,52.2l-3.3,9.1h-2.5l-2.1-5.7l-2.1,5.7H140l-3.3-9.1h2.5l2.2,6.2l2.2-6.2h2.2l2.2,6.2l2.2-6.2H152.6z"/>
	<path class="st3" d="M154.6,61.2c-0.7-0.2-1.3-0.4-1.7-0.7l0.9-1.9c0.4,0.3,0.9,0.5,1.5,0.6s1.1,0.2,1.7,0.2c1.1,0,1.7-0.3,1.7-0.8
		c0-0.3-0.2-0.4-0.5-0.6s-0.8-0.2-1.4-0.3c-0.7-0.1-1.4-0.2-1.9-0.4c-0.5-0.1-0.9-0.4-1.3-0.8c-0.4-0.4-0.5-0.9-0.5-1.6
		c0-0.6,0.2-1.1,0.5-1.5c0.3-0.4,0.8-0.8,1.5-1c0.6-0.2,1.4-0.4,2.3-0.4c0.6,0,1.3,0.1,1.9,0.2c0.6,0.1,1.2,0.3,1.6,0.6l-0.9,1.9
		c-0.8-0.5-1.7-0.7-2.6-0.7c-0.6,0-1,0.1-1.3,0.2c-0.3,0.2-0.4,0.4-0.4,0.6c0,0.3,0.2,0.5,0.5,0.6c0.3,0.1,0.8,0.2,1.5,0.3
		c0.7,0.1,1.4,0.3,1.8,0.4c0.5,0.1,0.9,0.4,1.2,0.8s0.5,0.9,0.5,1.6c0,0.6-0.2,1.1-0.5,1.5c-0.3,0.4-0.8,0.8-1.5,1
		c-0.7,0.2-1.4,0.4-2.3,0.4C156.1,61.4,155.3,61.3,154.6,61.2z"/>
</g>
</svg>
