<?xml version="1.0" encoding="utf-8"?>
<!-- Generator: Adobe Illustrator 21.0.0, SVG Export Plug-In . SVG Version: 6.00 Build 0)  -->
<svg version="1.1" id="Layer_1" xmlns="http://www.w3.org/2000/svg" xmlns:xlink="http://www.w3.org/1999/xlink" x="0px" y="0px"
	 viewBox="0 0 222 84" style="enable-background:new 0 0 222 84;" xml:space="preserve">
<style type="text/css">
	.st0{fill:url(#SVGID_1_);}
	.st1{fill:#2C2B3B;}
</style>
<g>
	
		<linearGradient id="SVGID_1_" gradientUnits="userSpaceOnUse" x1="178.1" y1="869.8" x2="205.9" y2="869.8" gradientTransform="matrix(1 0 0 1 0 -828)">
		<stop  offset="0" style="stop-color:#FFD600"/>
		<stop  offset="1" style="stop-color:#F4AD21"/>
	</linearGradient>
	<polygon class="st0" points="194.5,37 202.5,5.2 178.1,46.6 189.5,46.6 181.5,78.4 205.9,37 	"/>
	<path class="st1" d="M168,41.8c0-12.8,10.2-23.4,22.9-24l3.5-6c-0.8-0.1-1.6-0.1-2.4-0.1c-8,0-15.5,3.1-21.2,8.8S162,33.7,162,41.7
		s3.1,15.5,8.8,21.2c2.7,2.7,5.8,4.8,9.3,6.3l1.5-5.9C173.5,59.5,168,51.3,168,41.8z"/>
	<path class="st1" d="M213.2,20.6c-2.7-2.7-5.8-4.8-9.3-6.3l-1.5,5.9c8,3.9,13.5,12.1,13.5,21.6c0,12.8-10.2,23.4-22.9,24l-3.5,6
		c0.8,0.1,1.6,0.1,2.4,0.1c8,0,15.5-3.1,21.2-8.8s8.8-13.2,8.8-21.2C222,33.8,218.9,26.3,213.2,20.6z"/>
</g>
<g>
	<path class="st1" d="M45.7,42c0,5.5-1,10.3-3,14.6c-1.9,4-4.6,7.5-8.1,10.4c-5.4,4.6-12.7,6.9-21.7,6.9c-2.5,0-5-0.1-7.6-0.2H4
		c-0.5,0-0.9,0-1.3,0l-2.3-0.2V12.8c1.6-0.2,3.5-0.3,5.5-0.4l3.6-0.1h3.6c8,0,14.7,1.7,20.1,5.2C41.6,22.7,45.7,30.9,45.7,42
		L45.7,42z M38.1,42.2c0-8-3-14.3-9.1-19c-3.9-2.9-9.1-4.4-15.4-4.4c-0.8,0-1.8,0-3.1,0.1l-2.8,0.2v47.7C7.6,67,7.7,67,7.8,67
		c1.4,0.2,3.3,0.2,5.7,0.2c6.8,0,12.3-1.8,16.4-5.5c2.6-2.2,4.6-4.9,6-8C37.4,50.3,38.1,46.5,38.1,42.2L38.1,42.2z"/>
	<path class="st1" d="M55.1,12.6h27.6V19H62.3v20.4h18.8v6.3H62.3v21.5h21.2v6.5H55.1V12.6z"/>
	<path class="st1" d="M97.4,12h0.8c10.2,19.8,16.7,32.4,19.3,37.6l3.3,6.6l1.8,3.6h0.1c0.5-1.2,1.1-2.4,1.6-3.6
		c0.7-1.4,1.8-3.6,3.4-6.6l20-37.6h0.8l6.8,61.6H148l-2.5-24c-0.9-8.4-1.4-14.5-1.5-18.4h-0.2c-1.2,2.8-2.5,5.7-4.1,8.8
		c-0.7,1.3-1.4,2.8-2.2,4.4l-2.4,4.6c-1.2,2.4-2.9,5.7-5.2,9.9l-7.2,13.4h-0.8l-7.1-13.5c-2.2-4.2-3.9-7.5-5.1-9.9
		c-0.9-1.8-1.7-3.4-2.3-4.7c-0.8-1.7-1.6-3.2-2.2-4.5c-1.5-3.2-2.8-6.1-3.7-8.5h-0.2c-0.2,2.7-0.4,5.3-0.6,7.9
		c-0.3,3-0.6,6.5-1.1,10.6l-2.6,24h-7L97.4,12z"/>
</g>
</svg>
