<?xml version="1.0" encoding="utf-8"?>
<!-- Generator: Adobe Illustrator 21.0.0, SVG Export Plug-In . SVG Version: 6.00 Build 0)  -->
<svg version="1.1" id="Lightning" xmlns="http://www.w3.org/2000/svg" xmlns:xlink="http://www.w3.org/1999/xlink" x="0px" y="0px"
	 viewBox="0 0 1205 457" style="enable-background:new 0 0 1205 457;" xml:space="preserve">
<style type="text/css">
	.st0{fill:url(#SVGID_1_);}
	.st1{fill:#2C8BFA;}
	.st2{display:none;}
	.st3{display:inline;fill:#2C8BFA;}
	.st4{fill:url(#SVGID_2_);}
	.st5{fill:#FFFFFF;}
</style>
<g>
	<g>
		
			<linearGradient id="SVGID_1_" gradientUnits="userSpaceOnUse" x1="100.5" y1="-745.3" x2="274.1" y2="-745.3" gradientTransform="matrix(1 0 0 -1 0 -516.8)">
			<stop  offset="0" style="stop-color:#FFD600"/>
			<stop  offset="1" style="stop-color:#F4AD21"/>
		</linearGradient>
		<polygon class="st0" points="202.7,198.3 253,0 100.5,258.6 171.9,258.6 121.6,457 274.1,198.3 		"/>
		<path class="st1" d="M37.6,228.5c0-80.2,63.4-145.9,142.7-149.6l21.9-37.2c-4.9-0.4-9.9-0.6-14.9-0.6c-50,0-97.1,19.5-132.5,54.9
			C19.5,131.4,0,178.4,0,228.5c0,50,19.5,97.1,54.9,132.5c16.9,16.9,36.5,30.2,57.9,39.5l9.4-37.1C72.1,339,37.6,287.7,37.6,228.5z"
			/>
		<path class="st1" d="M319.8,96c-16.9-16.9-36.5-30.2-57.9-39.5l-9.4,37.1c50,24.3,84.5,75.6,84.5,134.8
			c0,80.2-63.4,145.9-142.7,149.6l-21.9,37.2c4.9,0.4,9.9,0.6,14.9,0.6c50,0,97.1-19.5,132.5-54.9s54.9-82.4,54.9-132.5
			C374.6,178.4,355.1,131.4,319.8,96z"/>
	</g>
	<g class="st2">
		<path class="st3" d="M409.6,133.5h45.1v73.1h66.8v-73.1h45v189.4h-45v-110l-29,34.6h-37.8v75.3h-45.1V133.5z"/>
		<path class="st3" d="M651.1,179.9c5.5,0,11.3,0.2,17.5,0.5c6.1,0.3,12.1,1.1,17.8,2.4c5.7,1.2,11.1,3.1,16.1,5.7
			c5,2.5,9.3,6,12.8,10.4c5.4,7.1,9.1,14.9,11.2,23.7c2,8.7,3,18.2,3,28.4c0,15-1.7,27.4-5,37.3s-7.5,17.1-12.7,21.6
			c-5.1,4.4-12.4,7.9-22.1,10.5c-9.7,2.6-21.4,3.9-35.1,3.9c-12.7,0-24-1.1-33.9-3.4c-9.8-2.3-18-6.2-24.3-11.8
			c-5.9-5.8-10.4-14.5-13.4-25.9c-2.8-11.1-4.3-22.9-4.3-35.5c0-3.1,0.1-5.8,0.3-8s0.3-5.1,0.5-8.6c1.8-10.9,5-20,9.5-27.2
			c3.4-5.1,7.5-9.2,12.6-12.4c5-3.2,10.4-5.6,16-7.3s11.4-2.8,17.2-3.4C640.6,180.2,646,179.9,651.1,179.9z M627.1,238.1
			c-0.9,4.4-1.3,9.6-1.3,15.7c0,5.7,0.4,11,1.3,15.9c0.9,4.9,2.3,9.2,4.3,12.8c2,3.6,4.7,6.4,8.1,8.3c3.4,1.9,7.4,2.7,12.1,2.4
			c4.4,0,8.7-0.8,13-2.5c5.2-2.2,8.9-5.2,10.9-9s3.4-7.8,4.1-12.1c0.5-2.1,0.9-3.8,1.2-5.1c0.3-1.3,0.5-2.5,0.6-3.6s0.2-2.1,0.3-3.2
			c0.1-1,0.1-2.4,0.1-4c0-7.9-0.8-14.8-2.5-20.6s-4.1-10-7.3-12.4c-3-2.6-6.1-4.3-9.3-5.1s-6.3-1.2-9.4-1.2c-7.4,0-13.5,2-18.4,6.1
			C630,224.7,627.4,230.5,627.1,238.1z"/>
		<path class="st3" d="M885.4,179.9l-27.7,37h-50.4h-14.4c-5.2,0.7-7.7,3.2-7.7,7.6c0,2.2,0.5,3.7,1.5,4.8c1.5,0.9,2.9,1.4,4.3,1.5
			c0.9,0.2,2.6,0.3,5.2,0.3c2.6,0,6.1,0,10.4,0h12.6c11.3-0.2,20.5,0.7,27.7,2.6c7.2,1.9,13,4.8,17.2,8.4c4.3,3.7,7.3,8.3,9.2,13.7
			c1.8,5.5,2.9,11.7,3.3,18.8c0,5-0.6,9.8-1.7,14.4c-1.2,4.6-3.7,10.1-7.5,16.5c-3.9,6.4-10.1,10.8-18.6,13.4
			c-8.6,2.5-18.6,3.8-30.2,3.8H811h-65.5v-36h56.2h10.8c5.7,0,10-0.4,13.1-1.2c3.1-0.8,5.3-2.4,6.8-4.9c0.7-1.2,1-2.6,1-4.1
			c-0.3-1.5-0.8-2.8-1.3-4s-1.4-2.3-2.8-3.2c-1.3-0.9-3.2-1.5-5.7-1.9c-2.5-0.3-5.7-0.4-9.9-0.3H810h-7h-6.6
			c-10.8,0-19.7-1.2-26.7-3.5c-7.4-2.4-13.1-7.2-17-14.3c-4-7.1-5.9-15.7-5.9-25.8c0-4.7,0.5-9.2,1.5-13.5s3.2-9.2,6.5-14.8
			c3.4-5.8,8.7-9.9,16.1-12.2c7.4-2.3,16.2-3.4,26.3-3.4h8h80.2L885.4,179.9L885.4,179.9z"/>
		<path class="st3" d="M940.5,132.6v47.3H964v37h-23.2V251v17.6c0.9,7.7,2.8,12.5,5.8,14.3c3.4,1.9,6.7,3.1,10.1,3.5
			c3.4,0.5,7.2,0.7,11.6,0.7l-20.1,36.6c-9.5,0-17.8-0.7-24.7-2.1s-12.4-4.1-16.4-8.2c-4.1-4.2-7.1-8.9-8.8-14.2
			c-1.7-5.2-2.6-13.2-2.6-24.1v-6.8v-51.5h-19.3L940.5,132.6z"/>
	</g>
</g>
<g>
	<g>
		<g>
			<path class="st1" d="M410,134.9h44.8v72.4h66.3v-72.4h44.5v187.8h-44.5V213.4l-28.7,34.5h-37.6v74.7H410V134.9z"/>
			<path class="st1" d="M649.5,180.8c5.4,0,11.1,0.4,17.2,0.4c6.1,0.4,11.9,1.1,17.6,2.3c5.7,1.1,11.1,3.1,16.1,5.7
				c5,2.3,9.2,6.1,12.6,10.3c5.4,6.9,9.2,14.9,11.1,23.4c1.9,8.8,3.1,18,3.1,28c0,14.9-1.5,27.2-5,37.2c-3.4,10-7.3,16.9-12.6,21.5
				c-5,4.2-12.3,7.7-21.8,10.3c-9.6,2.7-21.1,3.8-34.9,3.8c-12.6,0-23.8-1.1-33.7-3.4c-9.6-2.3-18-6.1-24.1-11.9
				c-5.7-5.7-10.3-14.6-13.4-25.7c-2.7-11.1-4.2-22.6-4.2-35.3c0-3.1,0-5.7,0.4-8s0.4-5,0.4-8.4c1.9-10.7,5-19.9,9.6-26.8
				c3.4-5,7.3-9.2,12.6-12.3c5-3.1,10.3-5.4,15.7-7.3c5.4-1.5,11.1-2.7,16.9-3.4C639.2,181.2,644.2,180.8,649.5,180.8z M625.8,238.7
				c-0.8,4.2-1.1,9.6-1.1,15.7c0,5.7,0.4,10.7,1.1,15.7s2.3,9.2,4.2,12.6s4.6,6.5,8,8c3.4,1.9,7.3,2.7,11.9,2.3
				c4.2,0,8.8-0.8,13-2.3c5-2.3,8.8-5,10.7-8.8s3.4-7.7,4.2-11.9c0.4-1.9,0.8-3.8,1.1-5c0.4-1.1,0.4-2.3,0.8-3.4
				c0-1.1,0.4-1.9,0.4-3.1s0-2.3,0-3.8c0-7.7-0.8-14.6-2.3-20.3s-4.2-10-7.3-12.3c-3.1-2.7-6.1-4.2-9.2-5s-6.1-1.1-9.2-1.1
				c-7.3,0-13.4,1.9-18.4,6.1C628.5,225.3,625.8,231.1,625.8,238.7z"/>
			<path class="st1" d="M881.8,180.8l-27.6,36.8h-49.8h-14.2c-5,0.8-7.7,3.1-7.7,7.7c0,2.3,0.4,3.8,1.5,4.6c1.5,0.8,3.1,1.5,4.2,1.5
				c0.8,0.4,2.7,0.4,5,0.4c2.7,0,6.1,0,10.3,0h12.6c11.1-0.4,20.3,0.8,27.6,2.7s13,4.6,16.9,8.4c4.2,3.8,7.3,8,9.2,13.4
				s3.1,11.5,3.4,18.8c0,5-0.8,9.6-1.5,14.2c-1.1,4.6-3.8,10-7.3,16.5c-3.8,6.5-10,10.7-18.4,13.4c-8.4,2.3-18.4,3.8-29.9,3.8h-7.7
				h-64.8v-35.6h55.6h10.7c5.7,0,10-0.4,13-1.1c3.1-0.8,5.4-2.3,6.9-5c0.8-1.1,1.1-2.7,1.1-4.2c-0.4-1.5-0.8-2.7-1.1-3.8
				c-0.4-1.1-1.5-2.3-2.7-3.1c-1.1-0.8-3.1-1.5-5.7-1.9c-2.3-0.4-5.7-0.4-10-0.4h-3.8h-6.9h-6.5c-10.7,0-19.5-1.1-26.4-3.4
				c-7.3-2.3-13-7.3-16.9-14.2c-3.8-6.9-5.7-15.7-5.7-25.7c0-4.6,0.4-9.2,1.5-13.4s3.1-9.2,6.5-14.6c3.4-5.7,8.8-10,16.1-12.3
				s16.1-3.4,26.1-3.4h8L881.8,180.8L881.8,180.8L881.8,180.8z"/>
			<path class="st1" d="M936.2,134.1v46.8h23.4v36.8h-23v33.7V269c0.8,7.7,2.7,12.3,5.7,14.2c3.4,1.9,6.5,3.1,10,3.4
				c3.4,0.4,7.3,0.8,11.5,0.8l-19.9,36.4c-9.6,0-17.6-0.8-24.5-1.9c-6.9-1.5-12.3-4.2-16.1-8c-4.2-4.2-6.9-8.8-8.8-14.2
				c-1.5-5-2.7-13-2.7-23.8V269v-51h-19.2L936.2,134.1z"/>
		</g>
	</g>
</g>
<g>
	
		<linearGradient id="SVGID_2_" gradientUnits="userSpaceOnUse" x1="948.4" y1="341.4832" x2="1205" y2="341.4832" gradientTransform="matrix(1 0 0 -1 0 458)">
		<stop  offset="0" style="stop-color:#FF5C6A"/>
		<stop  offset="1" style="stop-color:#D01238"/>
	</linearGradient>
	<path class="st4" d="M1189.7,169.2h-226c-8.4,0-15.3-6.1-15.3-13.5V77.3c0-7.4,6.9-13.5,15.3-13.5h226c8.4,0,15.3,6.1,15.3,13.5
		v78.5C1205,163.1,1198.1,169.2,1189.7,169.2z"/>
	<g>
		<path class="st5" d="M1067.5,90l-17.8,54.4h-13.5l-12-36.8l-12.4,36.8h-13.4L980.6,90h13.1l12.3,38.2l12.8-38.2h11.7l12.4,38.5
			l12.7-38.5H1067.5z"/>
		<path class="st5" d="M1116.6,134.3v10.1h-42.1V90h41.1v10.1H1087v11.8h25.3v9.8H1087v12.6H1116.6z"/>
		<path class="st5" d="M1173.9,121c1.8,2.3,2.6,5.1,2.6,8.5c0,4.8-1.9,8.4-5.6,11c-3.7,2.6-9.1,3.8-16.2,3.8h-28.1V90h26.6
			c6.6,0,11.7,1.3,15.3,3.8c3.5,2.5,5.3,6,5.3,10.3c0,2.6-0.6,5-1.9,7.1c-1.3,2.1-3,3.7-5.3,4.9
			C1169.7,117.1,1172.2,118.7,1173.9,121z M1139.2,99.4v12.8h12.5c3.1,0,5.5-0.5,7.1-1.6c1.6-1.1,2.4-2.7,2.4-4.8
			c0-2.1-0.8-3.7-2.4-4.8c-1.6-1.1-4-1.6-7.1-1.6H1139.2z M1161.4,133.2c1.7-1.1,2.5-2.8,2.5-5.1c0-4.5-3.3-6.8-10-6.8h-14.7v13.4
			h14.7C1157.2,134.9,1159.7,134.3,1161.4,133.2z"/>
	</g>
</g>
</svg>
