<?xml version="1.0" encoding="UTF-8"?> <!-- Generator: Adobe Illustrator 23.1.0, SVG Export Plug-In . SVG Version: 6.00 Build 0) --> <svg xmlns="http://www.w3.org/2000/svg" xmlns:xlink="http://www.w3.org/1999/xlink" version="1.1" id="Layer_1" x="0px" y="0px" viewBox="0 0 3167.6 485.8" style="enable-background:new 0 0 3167.6 485.8;" xml:space="preserve"> <style type="text/css"> .st0{fill-rule:evenodd;clip-rule:evenodd;fill:#FFFFFF;} </style> <title>slider2-wave</title> <desc>Created with Sketch.</desc> <g id="slider2-wave"> <path id="Path-4" class="st0" d="M-831.9,378.7c192-26,410.3-26,655,0c367,39,540,52,627,44c69,0,102-22,141-104 c31-100,209-100,284,0c65,104,228,128,348,120c120-8,222-55,337-48c115,7,406-29,548-72c142-43,241-103,517-83s480,187,768,115 c192-48,221,88,87,408H-971.9c-26-203.3-26-315.4,0-336S-899.2,387.4-831.9,378.7z"></path> </g> <g id="Home"> <g id="Group-5-Copy" transform="translate(-263.000000, -390.000000)"> <g transform="translate(76.000000, 390.000000)"> <path id="illustration-head" class="st0" d="M914.3,16.3c34.6,0,62.6,32.1,62.6,71.8c0,17.1-5.2,32.8-14,45.2h0 c-5.5,26.9-29.2,47.1-57.5,47.1c-28.6,0-52.4-20.5-57.7-47.7c-8.4-10.3-13.8-26.4-13.8-44.5c0-31.1,16-56.4,35.8-56.4 c1.8,0,3.6,0.2,5.3,0.6C885.7,22.3,899.4,16.3,914.3,16.3z M870.5,83.5c-2.3,9.9-8.5,19.4-18.7,28.4v9.5 c0,29.7,24,53.8,53.6,53.8c29.6,0,53.6-24.1,53.6-53.8v-14.8c-9.1-1.8-30.2-3.1-45.2-16.3l-0.5-0.4l0.1,0.3 c3.3,7.2,12.6,13.1,27.6,17.8C902,105,878.4,96.8,870.5,83.5z M921.7,149.2c-3.2,4.9-9.4,8.1-16.3,8.1c-6.9,0-13.1-3.1-16.3-8.1 c-0.8-1.2,0.8-2.6,1.9-1.6c3.5,3,8.7,4.8,14.4,4.8s10.9-1.8,14.4-4.8C920.9,146.7,922.5,148,921.7,149.2z M886.9,126.8 c0,10-15,10-15,0S886.9,116.8,886.9,126.8z M938.9,126.8c0,10-15,10-15,0S938.9,116.8,938.9,126.8z"></path> </g> </g> </g> </svg> 