<?xml version="1.0" encoding="UTF-8"?>
<!-- Generator: Adobe Illustrator 21.0.0, SVG Export Plug-In . SVG Version: 6.00 Build 0)  -->
<svg version="1.1" id="Lightning" xmlns="http://www.w3.org/2000/svg" xmlns:xlink="http://www.w3.org/1999/xlink" x="0px" y="0px" viewBox="0 0 130.5 61.6" style="enable-background:new 0 0 130.5 61.6;" xml:space="preserve">
<style type="text/css">
	.st0{fill:url(#SVGID_1_);}
	.st1{fill:#FFFFFF;}
</style>
<g>
	<g>
		
			<linearGradient id="SVGID_1_" gradientUnits="userSpaceOnUse" x1="13.5481" y1="402.8033" x2="36.9505" y2="402.8033" gradientTransform="matrix(1 0 0 1 0 -372)">
			<stop offset="0" style="stop-color:#FFD600"/>
			<stop offset="1" style="stop-color:#F4AD21"/>
		</linearGradient>
		<polygon class="st0" points="27.3,26.7 34.1,0 13.5,34.9 23.2,34.9 16.4,61.6 37,26.7   "/>
		<path class="st1" d="M5.1,30.8c0-10.8,8.5-19.7,19.2-20.2l3-5c-0.7-0.1-1.3-0.1-2-0.1c-6.7,0-13.1,2.6-17.9,7.4    C2.6,17.7,0,24,0,30.8c0,6.7,2.6,13.1,7.4,17.9c2.3,2.3,4.9,4.1,7.8,5.3l1.3-5C9.7,45.7,5.1,38.8,5.1,30.8z"/>
		<path class="st1" d="M43.1,12.9c-2.3-2.3-4.9-4.1-7.8-5.3l-1.3,5c6.7,3.3,11.4,10.2,11.4,18.2c0,10.8-8.5,19.7-19.2,20.2l-3,5    c0.7,0.1,1.3,0.1,2,0.1c6.7,0,13.1-2.6,17.9-7.4s7.4-11.1,7.4-17.9C50.5,24,47.9,17.7,43.1,12.9z"/>
	</g>
	<g>
		<path class="st1" d="M55.2,18h6.1v9.9h9V18h6.1v25.5h-6.1V28.7l-3.9,4.7h-5.1v10.2h-6.1V18z"/>
		<path class="st1" d="M87.8,24.3c0.7,0,1.5,0,2.4,0.1c0.8,0,1.6,0.1,2.4,0.3c0.8,0.2,1.5,0.4,2.2,0.8c0.7,0.3,1.3,0.8,1.7,1.4    c0.7,1,1.2,2,1.5,3.2c0.3,1.2,0.4,2.5,0.4,3.8c0,2-0.2,3.7-0.7,5s-1,2.3-1.7,2.9c-0.7,0.6-1.7,1.1-3,1.4s-2.9,0.5-4.7,0.5    c-1.7,0-3.2-0.1-4.6-0.5c-1.3-0.3-2.4-0.8-3.3-1.6c-0.8-0.8-1.4-2-1.8-3.5c-0.4-1.5-0.6-3.1-0.6-4.8c0-0.4,0-0.8,0-1.1    c0-0.3,0-0.7,0.1-1.2c0.2-1.5,0.7-2.7,1.3-3.7c0.5-0.7,1-1.2,1.7-1.7c0.7-0.4,1.4-0.8,2.2-1s1.5-0.4,2.3-0.5    C86.4,24.3,87.1,24.3,87.8,24.3z M84.5,32.1c-0.1,0.6-0.2,1.3-0.2,2.1c0,0.8,0.1,1.5,0.2,2.1c0.1,0.7,0.3,1.2,0.6,1.7    c0.3,0.5,0.6,0.9,1.1,1.1c0.5,0.3,1,0.4,1.6,0.3c0.6,0,1.2-0.1,1.8-0.3c0.7-0.3,1.2-0.7,1.5-1.2s0.5-1.1,0.6-1.6    c0.1-0.3,0.1-0.5,0.2-0.7c0-0.2,0.1-0.3,0.1-0.5c0-0.1,0-0.3,0-0.4c0-0.1,0-0.3,0-0.5c0-1.1-0.1-2-0.3-2.8c-0.2-0.8-0.6-1.3-1-1.7    c-0.4-0.4-0.8-0.6-1.3-0.7s-0.8-0.2-1.3-0.2c-1,0-1.8,0.3-2.5,0.8C84.9,30.3,84.6,31.1,84.5,32.1z"/>
		<path class="st1" d="M119.4,24.3l-3.7,5h-6.8h-1.9c-0.7,0.1-1,0.4-1,1c0,0.3,0.1,0.5,0.2,0.6c0.2,0.1,0.4,0.2,0.6,0.2    c0.1,0,0.4,0,0.7,0c0.4,0,0.8,0,1.4,0h1.7c1.5,0,2.8,0.1,3.7,0.4c1,0.3,1.8,0.6,2.3,1.1c0.6,0.5,1,1.1,1.2,1.8    c0.2,0.7,0.4,1.6,0.4,2.5c0,0.7-0.1,1.3-0.2,1.9c-0.2,0.6-0.5,1.4-1,2.2c-0.5,0.9-1.4,1.5-2.5,1.8c-1.2,0.3-2.5,0.5-4.1,0.5h-1    h-8.8v-4.9h7.6h1.5c0.8,0,1.3-0.1,1.8-0.2c0.4-0.1,0.7-0.3,0.9-0.7c0.1-0.2,0.1-0.4,0.1-0.6c0-0.2-0.1-0.4-0.2-0.5    c-0.1-0.2-0.2-0.3-0.4-0.4c-0.2-0.1-0.4-0.2-0.8-0.3c-0.3,0-0.8-0.1-1.3,0h-0.5h-0.9h-0.9c-1.5,0-2.7-0.2-3.6-0.5    c-1-0.3-1.8-1-2.3-1.9c-0.5-1-0.8-2.1-0.8-3.5c0-0.6,0.1-1.2,0.2-1.8c0.1-0.6,0.4-1.2,0.9-2c0.5-0.8,1.2-1.3,2.2-1.6    c1-0.3,2.2-0.5,3.5-0.5h1.1L119.4,24.3L119.4,24.3L119.4,24.3z"/>
		<path class="st1" d="M126.8,17.9v6.4h3.2v5h-3.1v4.6v2.4c0.1,1,0.4,1.7,0.8,1.9c0.5,0.3,0.9,0.4,1.4,0.5c0.5,0.1,1,0.1,1.6,0.1    l-2.7,4.9c-1.3,0-2.4-0.1-3.3-0.3s-1.7-0.6-2.2-1.1c-0.6-0.6-1-1.2-1.2-1.9c-0.2-0.7-0.4-1.8-0.4-3.2v-0.9v-6.9h-2.6L126.8,17.9z"/>
	</g>
</g>
</svg>