<?xml version="1.0" encoding="utf-8"?>
<!-- Generator: Adobe Illustrator 21.0.0, SVG Export Plug-In . SVG Version: 6.00 Build 0)  -->
<svg version="1.1" id="Layer_2" xmlns="http://www.w3.org/2000/svg" xmlns:xlink="http://www.w3.org/1999/xlink" x="0px" y="0px"
	 viewBox="0 0 100 100" style="enable-background:new 0 0 100 100;" xml:space="preserve">
<style type="text/css">
	.st0{fill:url(#SVGID_1_);}
	.st1{fill:url(#SVGID_2_);}
	.st2{fill:url(#SVGID_3_);}
	.st3{fill:url(#SVGID_4_);}
	.st4{fill:url(#SVGID_5_);}
	.st5{fill:url(#SVGID_6_);}
	.st6{fill:url(#SVGID_7_);}
	.st7{fill:url(#SVGID_8_);}
	.st8{fill:url(#SVGID_9_);}
	.st9{fill:url(#SVGID_10_);}
	.st10{fill:url(#SVGID_11_);}
	.st11{fill:url(#SVGID_12_);}
	.st12{fill:url(#SVGID_13_);}
	.st13{fill:#FFFFFF;}
</style>
<g>
	<linearGradient id="SVGID_1_" gradientUnits="userSpaceOnUse" x1="-0.8632" y1="33.2059" x2="100.5056" y2="33.2059">
		<stop  offset="0" style="stop-color:#0C36D6"/>
		<stop  offset="1" style="stop-color:#00CCF8"/>
	</linearGradient>
	<path class="st0" d="M88,17.8c7.1,8.3,11.5,19,11.9,30.8H87.6v-9c0-3.5-2.9-6.4-6.4-6.4h-5.3c-0.6-3.5-1.4-6.9-2.3-10
		C78.9,21.8,83.8,20,88,17.8z"/>
	<linearGradient id="SVGID_2_" gradientUnits="userSpaceOnUse" x1="15.7155" y1="50.1236" x2="84.533" y2="50.1236">
		<stop  offset="0" style="stop-color:#F4AD21"/>
		<stop  offset="1" style="stop-color:#FFD600"/>
	</linearGradient>
	<path class="st1" d="M19.1,64c-1.9,0-3.4-1.5-3.4-3.4v-21c0-1.9,1.5-3.4,3.4-3.4h62.1c1.9,0,3.4,1.5,3.4,3.4v21
		c0,1.9-1.5,3.4-3.4,3.4H19.1z"/>
	<linearGradient id="SVGID_3_" gradientUnits="userSpaceOnUse" x1="-0.8634" y1="71.7207" x2="100.5058" y2="71.7207">
		<stop  offset="0" style="stop-color:#0C36D6"/>
		<stop  offset="1" style="stop-color:#00CCF8"/>
	</linearGradient>
	<path class="st2" d="M72.8,67.1c-0.6,3.3-1.3,6.4-2.2,9.3c-6.4-1.4-13.4-2.1-20.5-2.1c-7.1,0-14,0.7-20.5,2.1
		c-0.9-2.9-1.6-6-2.2-9.3H72.8z"/>
	<linearGradient id="SVGID_4_" gradientUnits="userSpaceOnUse" x1="-0.8634" y1="28.5264" x2="100.5058" y2="28.5264">
		<stop  offset="0" style="stop-color:#0C36D6"/>
		<stop  offset="1" style="stop-color:#00CCF8"/>
	</linearGradient>
	<path class="st3" d="M27.5,33.2c0.6-3.3,1.3-6.4,2.2-9.3C36.1,25.2,43,26,50.1,26s14-0.7,20.5-2.1c0.9,2.9,1.6,6,2.2,9.3H27.5z"/>
	<linearGradient id="SVGID_5_" gradientUnits="userSpaceOnUse" x1="-0.8629" y1="10.8852" x2="100.5057" y2="10.8852">
		<stop  offset="0" style="stop-color:#0C36D6"/>
		<stop  offset="1" style="stop-color:#00CCF8"/>
	</linearGradient>
	<path class="st4" d="M85.8,15.5c-3.9,2-8.3,3.6-13.2,4.8c-2.9-8.3-6.9-14.8-11.7-18.7C70.6,3.7,79.2,8.6,85.8,15.5z"/>
	<linearGradient id="SVGID_6_" gradientUnits="userSpaceOnUse" x1="-0.8631" y1="11.6153" x2="100.5056" y2="11.6153">
		<stop  offset="0" style="stop-color:#0C36D6"/>
		<stop  offset="1" style="stop-color:#00CCF8"/>
	</linearGradient>
	<path class="st5" d="M69.6,20.9c-6.1,1.3-12.7,2-19.5,2s-13.4-0.7-19.5-2C35.1,8.3,42.4,0.3,50.1,0.3C57.9,0.3,65.1,8.3,69.6,20.9z
		"/>
	<linearGradient id="SVGID_7_" gradientUnits="userSpaceOnUse" x1="-0.8633" y1="10.8852" x2="100.5059" y2="10.8852">
		<stop  offset="0" style="stop-color:#0C36D6"/>
		<stop  offset="1" style="stop-color:#00CCF8"/>
	</linearGradient>
	<path class="st6" d="M39.3,1.5c-4.7,3.9-8.8,10.4-11.7,18.7c-4.9-1.2-9.3-2.8-13.2-4.8C21.1,8.6,29.7,3.7,39.3,1.5z"/>
	<linearGradient id="SVGID_8_" gradientUnits="userSpaceOnUse" x1="-0.8632" y1="33.2059" x2="100.5056" y2="33.2059">
		<stop  offset="0" style="stop-color:#0C36D6"/>
		<stop  offset="1" style="stop-color:#00CCF8"/>
	</linearGradient>
	<path class="st7" d="M12.3,17.8c4.2,2.2,9.1,4,14.4,5.3c-0.9,3.1-1.7,6.5-2.3,10h-5.3c-3.5,0-6.4,2.9-6.4,6.4v9H0.4
		C0.7,36.9,5.1,26.2,12.3,17.8z"/>
	<linearGradient id="SVGID_9_" gradientUnits="userSpaceOnUse" x1="-0.8632" y1="67.0411" x2="100.5058" y2="67.0411">
		<stop  offset="0" style="stop-color:#0C36D6"/>
		<stop  offset="1" style="stop-color:#00CCF8"/>
	</linearGradient>
	<path class="st8" d="M12.3,82.4c-7.1-8.3-11.5-19-11.9-30.8h12.3v9c0,3.5,2.9,6.4,6.4,6.4h5.3c0.6,3.5,1.4,6.9,2.3,10
		C21.3,78.4,16.5,80.2,12.3,82.4z"/>
	<linearGradient id="SVGID_10_" gradientUnits="userSpaceOnUse" x1="-0.8631" y1="89.3621" x2="100.5055" y2="89.3621">
		<stop  offset="0" style="stop-color:#0C36D6"/>
		<stop  offset="1" style="stop-color:#00CCF8"/>
	</linearGradient>
	<path class="st9" d="M14.4,84.8c3.9-2,8.3-3.6,13.2-4.8c2.9,8.3,6.9,14.8,11.7,18.7C29.7,96.6,21.1,91.6,14.4,84.8z"/>
	<linearGradient id="SVGID_11_" gradientUnits="userSpaceOnUse" x1="-0.8631" y1="88.6319" x2="100.5056" y2="88.6319">
		<stop  offset="0" style="stop-color:#0C36D6"/>
		<stop  offset="1" style="stop-color:#00CCF8"/>
	</linearGradient>
	<path class="st10" d="M30.6,79.3c6.1-1.3,12.7-2,19.5-2s13.4,0.7,19.5,2c-4.5,12.6-11.7,20.6-19.5,20.6
		C42.4,99.9,35.1,91.9,30.6,79.3z"/>
	<linearGradient id="SVGID_12_" gradientUnits="userSpaceOnUse" x1="-0.8629" y1="89.3621" x2="100.5057" y2="89.3621">
		<stop  offset="0" style="stop-color:#0C36D6"/>
		<stop  offset="1" style="stop-color:#00CCF8"/>
	</linearGradient>
	<path class="st11" d="M60.9,98.7c4.7-3.9,8.8-10.4,11.7-18.7c4.9,1.2,9.3,2.8,13.2,4.8C79.2,91.6,70.6,96.6,60.9,98.7z"/>
	<linearGradient id="SVGID_13_" gradientUnits="userSpaceOnUse" x1="-0.8631" y1="67.041" x2="100.5059" y2="67.041">
		<stop  offset="0" style="stop-color:#0C36D6"/>
		<stop  offset="1" style="stop-color:#00CCF8"/>
	</linearGradient>
	<path class="st12" d="M88,82.4c-4.2-2.2-9.1-4-14.4-5.3c0.9-3.1,1.7-6.5,2.3-10h5.3c3.5,0,6.4-2.9,6.4-6.4v-9h12.3
		C99.5,63.4,95.1,74.1,88,82.4z"/>
	<g>
		<path class="st13" d="M89.8,15.2C89.7,15.2,89.7,15.2,89.8,15.2c-0.2-0.3-0.4-0.5-0.6-0.6C79.5,4,65.6-2.8,50.1-2.8
			S20.7,4,11.1,14.6c-0.2,0.1-0.4,0.3-0.5,0.5c0,0,0,0.1,0,0.1C2.3,24.6-2.8,36.8-2.8,50.1c0,13.4,5,25.6,13.2,34.9c0,0,0,0.1,0,0.1
			c0.1,0.3,0.3,0.5,0.6,0.6c9.7,10.6,23.6,17.3,39,17.3c15.5,0,29.4-6.7,39.1-17.4c0.2-0.1,0.4-0.3,0.5-0.5c0,0,0-0.1,0-0.1
			C98,75.7,103,63.5,103,50.1C103,36.8,98,24.6,89.8,15.2z M88,17.8c7.1,8.3,11.5,19,11.9,30.8H87.6v-9c0-3.5-2.9-6.4-6.4-6.4h-5.3
			c-0.6-3.5-1.4-6.9-2.3-10C78.9,21.8,83.8,20,88,17.8z M19.1,64c-1.9,0-3.4-1.5-3.4-3.4v-21c0-1.9,1.5-3.4,3.4-3.4h62.1
			c1.9,0,3.4,1.5,3.4,3.4v21c0,1.9-1.5,3.4-3.4,3.4H19.1z M72.8,67.1c-0.6,3.3-1.3,6.4-2.2,9.3c-6.4-1.4-13.4-2.1-20.5-2.1
			c-7.1,0-14,0.7-20.5,2.1c-0.9-2.9-1.6-6-2.2-9.3H72.8z M27.5,33.2c0.6-3.3,1.3-6.4,2.2-9.3C36.1,25.2,43,26,50.1,26
			s14-0.7,20.5-2.1c0.9,2.9,1.6,6,2.2,9.3H27.5z M85.8,15.5c-3.9,2-8.3,3.6-13.2,4.8c-2.9-8.3-6.9-14.8-11.7-18.7
			C70.6,3.7,79.2,8.6,85.8,15.5z M69.6,20.9c-6.1,1.3-12.7,2-19.5,2s-13.4-0.7-19.5-2C35.1,8.3,42.4,0.3,50.1,0.3
			C57.9,0.3,65.1,8.3,69.6,20.9z M39.3,1.5c-4.7,3.9-8.8,10.4-11.7,18.7c-4.9-1.2-9.3-2.8-13.2-4.8C21.1,8.6,29.7,3.7,39.3,1.5z
			 M12.3,17.8c4.2,2.2,9.1,4,14.4,5.3c-0.9,3.1-1.7,6.5-2.3,10h-5.3c-3.5,0-6.4,2.9-6.4,6.4v9H0.4C0.7,36.9,5.1,26.2,12.3,17.8z
			 M12.3,82.4c-7.1-8.3-11.5-19-11.9-30.8h12.3v9c0,3.5,2.9,6.4,6.4,6.4h5.3c0.6,3.5,1.4,6.9,2.3,10C21.3,78.4,16.5,80.2,12.3,82.4z
			 M14.4,84.8c3.9-2,8.3-3.6,13.2-4.8c2.9,8.3,6.9,14.8,11.7,18.7C29.7,96.6,21.1,91.6,14.4,84.8z M30.6,79.3c6.1-1.3,12.7-2,19.5-2
			s13.4,0.7,19.5,2c-4.5,12.6-11.7,20.6-19.5,20.6C42.4,99.9,35.1,91.9,30.6,79.3z M60.9,98.7c4.7-3.9,8.8-10.4,11.7-18.7
			c4.9,1.2,9.3,2.8,13.2,4.8C79.2,91.6,70.6,96.6,60.9,98.7z M88,82.4c-4.2-2.2-9.1-4-14.4-5.3c0.9-3.1,1.7-6.5,2.3-10h5.3
			c3.5,0,6.4-2.9,6.4-6.4v-9h12.3C99.5,63.4,95.1,74.1,88,82.4z"/>
		<path class="st13" d="M37.7,40.9c-0.8-0.2-1.7,0.3-1.9,1.1l-2.4,9.5l-2.4-9.5c-0.2-0.7-0.8-1.2-1.5-1.2c-0.7,0-1.3,0.5-1.5,1.2
			l-2.4,9.5l-2.4-9.5c-0.2-0.8-1-1.3-1.9-1.1c-0.8,0.2-1.3,1-1.1,1.9l3.9,15.4c0.2,0.7,0.8,1.2,1.5,1.2s1.3-0.5,1.5-1.2l2.4-9.5
			l2.4,9.5c0.2,0.7,0.8,1.2,1.5,1.2c0.7,0,1.3-0.5,1.5-1.2l3.8-15.4C39,42,38.5,41.1,37.7,40.9z"/>
		<path class="st13" d="M58.2,40.9c-0.8-0.2-1.7,0.3-1.9,1.1L54,51.5l-2.4-9.5c-0.2-0.7-0.8-1.2-1.5-1.2c-0.7,0-1.3,0.5-1.5,1.2
			l-2.4,9.5l-2.4-9.5c-0.2-0.8-1-1.3-1.9-1.1c-0.8,0.2-1.3,1-1.1,1.9l3.9,15.4c0.2,0.7,0.8,1.2,1.5,1.2c0.7,0,1.3-0.5,1.5-1.2
			l2.4-9.5l2.4,9.5c0.2,0.7,0.8,1.2,1.5,1.2c0.7,0,1.3-0.5,1.5-1.2l3.9-15.4C59.5,42,59,41.1,58.2,40.9z"/>
		<path class="st13" d="M78.7,40.9c-0.8-0.2-1.7,0.3-1.9,1.1l-2.4,9.5l-2.4-9.5c-0.2-0.7-0.8-1.2-1.5-1.2s-1.3,0.5-1.5,1.2l-2.4,9.5
			l-2.4-9.5c-0.2-0.8-1-1.3-1.9-1.1c-0.8,0.2-1.3,1-1.1,1.9l3.9,15.4c0.2,0.7,0.8,1.2,1.5,1.2s1.3-0.5,1.5-1.2l2.4-9.5l2.4,9.5
			c0.2,0.7,0.8,1.2,1.5,1.2s1.3-0.5,1.5-1.2l3.8-15.4C80.1,42,79.6,41.1,78.7,40.9z"/>
	</g>
</g>
</svg>
