<?xml version="1.0" encoding="utf-8"?>
<!-- Generator: Adobe Illustrator 21.0.0, SVG Export Plug-In . SVG Version: 6.00 Build 0)  -->
<svg version="1.1" id="Layer_3" xmlns="http://www.w3.org/2000/svg" xmlns:xlink="http://www.w3.org/1999/xlink" x="0px" y="0px"
	 viewBox="0 0 100 100" style="enable-background:new 0 0 100 100;" xml:space="preserve">
<style type="text/css">
	.st0{fill:url(#SVGID_1_);}
	.st1{fill:url(#SVGID_2_);}
	.st2{fill:#FFFFFF;}
	.st3{fill:url(#SVGID_3_);}
</style>
<g>
	
		<linearGradient id="SVGID_1_" gradientUnits="userSpaceOnUse" x1="68.0399" y1="329.7006" x2="69.0325" y2="427.5179" gradientTransform="matrix(1 0 0 1 0 -335)">
		<stop  offset="0" style="stop-color:#0C36D6"/>
		<stop  offset="1" style="stop-color:#00CCF8"/>
	</linearGradient>
	<path class="st0" d="M50.7,0.5l28.7,7.9c4.3,1.2,7.2,5.1,7.2,9.5v64c0,4.4-3,8.3-7.2,9.5l-28.7,8.3l6.1-20V18.3L50.7,0.5z"/>
	<g>
		
			<linearGradient id="SVGID_2_" gradientUnits="userSpaceOnUse" x1="51.2362" y1="333.5234" x2="40.5143" y2="348.8473" gradientTransform="matrix(1 0 0 1 0 -335)">
			<stop  offset="0" style="stop-color:#F4AD21"/>
			<stop  offset="1" style="stop-color:#FFD600"/>
		</linearGradient>
		<path class="st1" d="M12.2,78.2c-1.9,0-3.5-1.6-3.5-3.5V27.3c0-3,1.6-5.8,4.2-7.3L43.8,2.5c1.2-0.7,2.5-1,3.8-1
			c4.3,0,7.7,3.5,7.7,7.7v8l-23.8,8.6c-3.6,1.3-6,4.6-6,8.4v33.6c0,2.2-1.2,4.2-3.1,5.2l-8.6,4.7C13.3,78.1,12.8,78.2,12.2,78.2z"/>
		<g>
			<path class="st2" d="M47.6,3c3.4,0,6.2,2.8,6.2,6.2v7L31,24.4c-4.2,1.5-7,5.4-7,9.8v33.6c0,1.6-0.9,3.1-2.3,3.9l-8.6,4.7l0,0l0,0
				c-0.3,0.2-0.6,0.2-0.9,0.2c-1.1,0-2-0.9-2-2l0-47.4c0-2.5,1.3-4.8,3.4-6L44.6,3.8C45.5,3.3,46.5,3,47.6,3L47.6,3 M47.6,0
				c-1.6,0-3.2,0.4-4.6,1.2L12.2,18.7c-3.1,1.8-4.9,5.1-5,8.6v47.4c0,2.7,2.2,5,5,5c0.8,0,1.7-0.2,2.4-0.6l8.6-4.7
				c2.4-1.3,3.9-3.8,3.9-6.5V34.2c0-3.2,2-6,5-7l24.8-8.9V9.2C56.9,4.1,52.7,0,47.6,0C47.6,0,47.6,0,47.6,0C47.6,0,47.6,0,47.6,0
				L47.6,0z"/>
		</g>
	</g>
	<g>
		
			<linearGradient id="SVGID_3_" gradientUnits="userSpaceOnUse" x1="66.057" y1="426.1058" x2="39.4432" y2="423.7718" gradientTransform="matrix(1 0 0 1 0 -335)">
			<stop  offset="0" style="stop-color:#F4AD21"/>
			<stop  offset="1" style="stop-color:#FFD600"/>
		</linearGradient>
		<path class="st3" d="M48.1,98.5c-1.5,0-3-0.4-4.3-1.1L24.5,86.4c-0.9-0.5-1.4-1.4-1.4-2.4c0-1.5,1.3-2.8,2.8-2.8h29.5v9.9
			c0,3.2-2,6.1-5.1,7.1c-0.6,0.1-1.2,0.2-1.8,0.2C48.3,98.4,48.2,98.5,48.1,98.5z"/>
		<path class="st2" d="M25.9,82.7L25.9,82.7l28,0v8.4c0,2.6-1.6,4.8-4,5.7c-0.5,0.1-1,0.2-1.4,0.2l0,0l0,0c-0.1,0-0.2,0-0.3,0
			c-1.3,0-2.5-0.3-3.6-0.9L44,95.7L25.3,85.1c-0.4-0.2-0.7-0.7-0.6-1.1C24.6,83.3,25.2,82.7,25.9,82.7 M25.9,79.7
			c-2.4,0-4.3,1.9-4.3,4.3c0,1.5,0.8,3,2.2,3.8l18.8,10.6l0.5,0.3c1.5,0.9,3.3,1.3,5,1.3c0.1,0,0.2,0,0.4,0c0.8,0,1.5-0.1,2.2-0.3
			c3.7-1.2,6.2-4.7,6.2-8.6V79.7L25.9,79.7C25.9,79.7,25.9,79.7,25.9,79.7L25.9,79.7z"/>
	</g>
</g>
</svg>
