<?xml version="1.0" encoding="utf-8"?>
<!-- Generator: Adobe Illustrator 21.0.0, SVG Export Plug-In . SVG Version: 6.00 Build 0)  -->
<svg version="1.1" id="Layer_1" xmlns="http://www.w3.org/2000/svg" xmlns:xlink="http://www.w3.org/1999/xlink" x="0px" y="0px"
	 viewBox="0 0 100 100" style="enable-background:new 0 0 100 100;" xml:space="preserve">
<style type="text/css">
	.st0{fill:url(#SVGID_1_);}
	.st1{fill:url(#SVGID_2_);}
</style>
<g id="W_Mark_2_">
	
		<linearGradient id="SVGID_1_" gradientUnits="userSpaceOnUse" x1="0" y1="52" x2="100" y2="52" gradientTransform="matrix(1 0 0 -1 0 102)">
		<stop  offset="0" style="stop-color:#F4AD21"/>
		<stop  offset="1" style="stop-color:#FFD600"/>
	</linearGradient>
	<path class="st0" d="M50,3c6.4,0,12.5,1.3,18.3,3.7c2.8,1.2,5.5,2.6,8,4.3c2.5,1.7,4.8,3.6,7,5.7c2.1,2.1,4.1,4.5,5.7,7
		c1.7,2.5,3.2,5.2,4.3,8c2.5,5.8,3.7,12,3.7,18.3s-1.3,12.5-3.7,18.3c-1.2,2.8-2.6,5.5-4.3,8c-1.7,2.5-3.6,4.8-5.7,7
		c-2.1,2.1-4.5,4.1-7,5.7c-2.5,1.7-5.2,3.2-8,4.3C62.5,95.8,56.3,97,50,97c-6.4,0-12.5-1.3-18.3-3.7c-2.8-1.2-5.5-2.6-8-4.3
		c-2.5-1.7-4.8-3.6-7-5.7c-2.1-2.1-4.1-4.5-5.7-7c-1.7-2.5-3.2-5.2-4.3-8C4.3,62.5,3,56.4,3,50s1.3-12.5,3.7-18.3
		c1.2-2.8,2.6-5.5,4.3-8c1.7-2.5,3.6-4.8,5.7-7c2.1-2.1,4.5-4.1,7-5.7c2.5-1.7,5.2-3.2,8-4.3C37.5,4.2,43.6,3,50,3 M50,0
		C22.4,0,0,22.4,0,50s22.4,50,50,50s50-22.4,50-50S77.6,0,50,0L50,0z"/>
	
		<linearGradient id="SVGID_2_" gradientUnits="userSpaceOnUse" x1="5.5632" y1="52" x2="94.4368" y2="52" gradientTransform="matrix(1 0 0 -1 0 102)">
		<stop  offset="0" style="stop-color:#0C36D6"/>
		<stop  offset="1" style="stop-color:#00CCF8"/>
	</linearGradient>
	<path class="st1" d="M5.6,50c0,17.6,10.2,32.8,25.1,40L9.4,31.9C6.9,37.4,5.6,43.5,5.6,50z M80,47.8c0-5.5-2-9.3-3.7-12.3
		c-2.3-3.7-4.4-6.8-4.4-10.4c0-4.1,3.1-7.9,7.5-7.9c0.2,0,0.4,0,0.6,0C72.1,10,61.6,5.6,50,5.6c-15.5,0-29.2,8-37.1,20
		c1.1,0,2,0.1,2.9,0.1c4.6,0,11.8-0.6,11.8-0.6c2.4-0.2,2.7,3.4,0.3,3.7c0,0-2.4,0.3-5.1,0.4L39,77.3l9.7-29.2l-6.9-19
		c-2.4-0.2-4.7-0.4-4.7-0.4c-2.4-0.2-2.1-3.8,0.3-3.7c0,0,7.3,0.6,11.7,0.6c4.6,0,11.8-0.6,11.8-0.6c2.4-0.2,2.7,3.4,0.3,3.7
		c0,0-2.4,0.3-5.1,0.4l16.1,47.8l4.6-14.5C78.8,56.1,80,51.6,80,47.8z M50.8,53.9L37.5,92.6c4,1.2,8.2,1.8,12.6,1.8
		c5.2,0,10.1-0.9,14.8-2.5c-0.1-0.2-0.2-0.4-0.3-0.6L50.8,53.9z M89,28.7c0.2,1.4,0.3,2.9,0.3,4.6c0,4.5-0.8,9.6-3.4,15.9L72.4,88.4
		c13.2-7.7,22.1-22,22.1-38.4C94.4,42.3,92.5,35,89,28.7z"/>
</g>
</svg>
