<?xml version="1.0" encoding="utf-8"?>
<!-- Generator: Adobe Illustrator 21.0.0, SVG Export Plug-In . SVG Version: 6.00 Build 0)  -->
<svg version="1.1" id="Layer_2" xmlns="http://www.w3.org/2000/svg" xmlns:xlink="http://www.w3.org/1999/xlink" x="0px" y="0px"
	 viewBox="0 0 100 100" style="enable-background:new 0 0 100 100;" xml:space="preserve">
<style type="text/css">
	.st0{fill:url(#SVGID_1_);}
	.st1{fill:url(#SVGID_2_);}
	.st2{fill:#FFFFFF;}
</style>
<g>
	<linearGradient id="SVGID_1_" gradientUnits="userSpaceOnUse" x1="30.3149" y1="44.3932" x2="70.9607" y2="44.3932">
		<stop  offset="0" style="stop-color:#F4AD21"/>
		<stop  offset="1" style="stop-color:#FFD600"/>
	</linearGradient>
	<rect x="30.3" y="12.4" class="st0" width="40.6" height="63.9"/>
	<linearGradient id="SVGID_2_" gradientUnits="userSpaceOnUse" x1="5.3715" y1="49.9185" x2="94.2935" y2="49.9185">
		<stop  offset="0" style="stop-color:#0C36D6"/>
		<stop  offset="1" style="stop-color:#00CCF8"/>
	</linearGradient>
	<path class="st1" d="M49.5,0l-44,11c-0.1,0-0.1,0.1-0.1,0.1c0.2,54.4,6.5,73.2,44.2,88.7c0,0,0.1,0,0.1,0
		c37.6-15.4,43.8-34.2,44-88.7c0-0.1,0-0.1-0.1-0.1L49.5,0C49.6,0,49.5,0,49.5,0z M69.2,74.1c0,5.2,0.6,3-4.6,3H34.5
		c-5.2,0-4.6,2.2-4.6-3V43.8c0-5-0.8-5.8,4.1-6c0.1,0,4.9-3.3,4.9-3.3l0-7.4c0-8.2,1.1-12.3,9.3-13.1c9.2-0.8,12.1,3.2,12.1,12.2
		v8.3c0,0.1,0.1,3.3,0.1,3.3c4.9,0.3,10.4,1.1,10.4,6L69.2,74.1z"/>
	<g>
		<path class="st2" d="M65.5,32.3v-8.6c0-8.7-7.1-15.9-15.8-15.9c-8.7,0-15.9,7.1-15.9,15.9v8.6c-5.1,0.1-9.2,4.3-9.2,9.5v31.1
			c0,5.2,4.2,9.5,9.5,9.5h31.1c5.2,0,9.5-4.2,9.5-9.5V41.8C74.6,36.7,70.5,32.5,65.5,32.3z M41.1,23.7c0-4.7,3.8-8.6,8.6-8.6
			c4.7,0,8.6,3.8,8.6,8.6v8.5H41.1V23.7z M67.3,72.9c0,1.2-1,2.2-2.2,2.2H34c-1.2,0-2.2-1-2.2-2.2V41.8c0-1.2,1-2.2,2.2-2.2h3.3
			c0,0,0.1,0,0.1,0c0,0,0.1,0,0.1,0h24.2c0,0,0.1,0,0.1,0c0,0,0.1,0,0.1,0h3.2c1.2,0,2.2,1,2.2,2.2V72.9z"/>
		<g>
			<path class="st2" d="M37.8,60.5c0.2,0.5,0.4,1,0.8,1.4c0.4,0.4,0.9,0.5,1.4,0.5c0.3,0,0.6,0,0.9-0.1c0.3-0.1,0.5-0.2,0.7-0.4
				c0.2-0.2,0.4-0.4,0.5-0.7c0.1-0.3,0.2-0.7,0.2-1.1c0-0.4-0.1-0.8-0.2-1.1c-0.1-0.3-0.3-0.6-0.5-0.7c-0.2-0.2-0.5-0.3-0.7-0.4
				c-0.3-0.1-0.6-0.1-0.9-0.1c-0.6,0-1.1-0.1-1.5-0.3c-0.5-0.2-0.9-0.5-1.2-0.8c-0.3-0.4-0.6-0.8-0.8-1.4c-0.2-0.6-0.3-1.2-0.3-2
				c0-0.7,0.1-1.4,0.3-1.9c0.2-0.6,0.4-1.1,0.8-1.4c0.3-0.4,0.7-0.7,1.2-0.9c0.5-0.2,1-0.3,1.6-0.3c0,0,0.1,0,0.4,0
				c0.3,0,0.6,0.1,0.9,0.3c0.4,0.2,0.7,0.4,1.1,0.8c0.4,0.3,0.7,0.8,1,1.5c0,0.1,0.1,0.2,0.1,0.4c0,0.1,0.1,0.3,0.1,0.4
				c0,0.3-0.1,0.6-0.2,0.9c-0.2,0.3-0.4,0.5-0.7,0.5c-0.1,0-0.3,0-0.4-0.1c-0.1-0.1-0.2-0.2-0.3-0.4l0,0c-0.2-0.4-0.5-0.8-0.8-1.1
				c-0.3-0.3-0.6-0.4-1.1-0.4c-0.7,0-1.2,0.2-1.5,0.6c-0.3,0.4-0.4,0.8-0.4,1.3c0,0.7,0.2,1.1,0.6,1.4c0.4,0.3,0.8,0.4,1.4,0.4
				c0.6,0,1.1,0.1,1.6,0.3c0.5,0.2,1,0.5,1.4,1c0.4,0.4,0.7,1,0.9,1.6c0.2,0.6,0.3,1.4,0.3,2.2c0,0.9-0.1,1.6-0.3,2.3
				s-0.5,1.2-0.9,1.6c-0.4,0.4-0.8,0.7-1.4,1c-0.5,0.2-1.1,0.3-1.7,0.3c-0.1,0-0.3,0-0.7-0.1c-0.3-0.1-0.7-0.2-1.1-0.5
				c-0.4-0.2-0.8-0.6-1.2-1.1c-0.4-0.5-0.8-1.2-1-2.1c0-0.1-0.1-0.2-0.1-0.4c0-0.1,0-0.2,0-0.3c0-0.4,0.1-0.7,0.3-1
				c0.2-0.3,0.4-0.4,0.6-0.4c0.2,0,0.5,0.1,0.6,0.3C37.6,59.9,37.7,60.2,37.8,60.5L37.8,60.5z"/>
			<path class="st2" d="M47,60.5c0.2,0.5,0.4,1,0.8,1.4c0.4,0.4,0.9,0.5,1.4,0.5c0.3,0,0.6,0,0.9-0.1c0.3-0.1,0.5-0.2,0.7-0.4
				c0.2-0.2,0.4-0.4,0.5-0.7s0.2-0.7,0.2-1.1c0-0.4-0.1-0.8-0.2-1.1c-0.1-0.3-0.3-0.6-0.5-0.7c-0.2-0.2-0.5-0.3-0.7-0.4
				c-0.3-0.1-0.6-0.1-0.9-0.1c-0.6,0-1.1-0.1-1.5-0.3c-0.5-0.2-0.9-0.5-1.2-0.8c-0.3-0.4-0.6-0.8-0.8-1.4c-0.2-0.6-0.3-1.2-0.3-2
				c0-0.7,0.1-1.4,0.3-1.9s0.4-1.1,0.8-1.4c0.3-0.4,0.7-0.7,1.2-0.9c0.5-0.2,1-0.3,1.6-0.3c0,0,0.1,0,0.4,0c0.3,0,0.6,0.1,0.9,0.3
				c0.4,0.2,0.7,0.4,1.1,0.8c0.4,0.3,0.7,0.8,1,1.5c0,0.1,0.1,0.2,0.1,0.4c0,0.1,0.1,0.3,0.1,0.4c0,0.3-0.1,0.6-0.2,0.9
				c-0.2,0.3-0.4,0.5-0.7,0.5c-0.1,0-0.3,0-0.4-0.1c-0.1-0.1-0.2-0.2-0.3-0.4l0,0c-0.2-0.4-0.5-0.8-0.8-1.1
				c-0.3-0.3-0.6-0.4-1.1-0.4c-0.7,0-1.2,0.2-1.5,0.6c-0.3,0.4-0.4,0.8-0.4,1.3c0,0.7,0.2,1.1,0.6,1.4c0.4,0.3,0.8,0.4,1.4,0.4
				c0.6,0,1.1,0.1,1.6,0.3s1,0.5,1.4,1c0.4,0.4,0.7,1,0.9,1.6c0.2,0.6,0.3,1.4,0.3,2.2c0,0.9-0.1,1.6-0.3,2.3s-0.5,1.2-0.9,1.6
				c-0.4,0.4-0.8,0.7-1.4,1c-0.5,0.2-1.1,0.3-1.7,0.3c-0.1,0-0.3,0-0.7-0.1c-0.3-0.1-0.7-0.2-1.1-0.5c-0.4-0.2-0.8-0.6-1.2-1.1
				c-0.4-0.5-0.8-1.2-1-2.1c0-0.1-0.1-0.2-0.1-0.4c0-0.1,0-0.2,0-0.3c0-0.4,0.1-0.7,0.3-1c0.2-0.3,0.4-0.4,0.6-0.4
				c0.2,0,0.5,0.1,0.6,0.3C46.8,59.9,46.9,60.2,47,60.5L47,60.5z"/>
			<path class="st2" d="M54.5,49.9c0-0.4,0.1-0.7,0.3-1c0.2-0.3,0.4-0.4,0.7-0.4c0.3,0,0.5,0.1,0.7,0.4c0.2,0.3,0.3,0.6,0.3,1v12.4
				h5.6c0.3,0,0.5,0.1,0.7,0.4s0.3,0.6,0.3,1s-0.1,0.7-0.3,1c-0.2,0.3-0.4,0.4-0.7,0.4h-6.5c-0.3,0-0.5-0.1-0.7-0.4
				c-0.2-0.3-0.3-0.6-0.3-1V49.9z"/>
		</g>
	</g>
</g>
</svg>
