<?xml version="1.0" encoding="utf-8"?>
<!-- Generator: Adobe Illustrator 21.0.0, SVG Export Plug-In . SVG Version: 6.00 Build 0)  -->
<svg version="1.1" id="Layer_4" xmlns="http://www.w3.org/2000/svg" xmlns:xlink="http://www.w3.org/1999/xlink" x="0px" y="0px"
	 viewBox="0 0 100 100" style="enable-background:new 0 0 100 100;" xml:space="preserve">
<style type="text/css">
	.st0{fill:url(#SVGID_1_);}
	.st1{fill:url(#SVGID_2_);}
	.st2{fill:url(#SVGID_3_);}
	.st3{fill:url(#SVGID_4_);}
	.st4{fill:url(#SVGID_5_);}
	.st5{fill:url(#SVGID_6_);}
	.st6{fill:#FFFFFF;}
</style>
<g>
	<linearGradient id="SVGID_1_" gradientUnits="userSpaceOnUse" x1="0.8592" y1="12.2657" x2="99.7735" y2="12.2657">
		<stop  offset="0" style="stop-color:#0C36D6"/>
		<stop  offset="1" style="stop-color:#00CCF8"/>
	</linearGradient>
	<path class="st0" d="M98.9,1H1.8C1.3,1,0.9,1.5,0.9,2v20.6c0,0.5,0.4,0.9,0.9,0.9h97.1c0.5,0,0.9-0.4,0.9-0.9V2
		C99.8,1.5,99.4,1,98.9,1z M86,18.9c-3.7,0-6.6-3-6.6-6.6s3-6.6,6.6-6.6c3.6,0,6.6,3,6.6,6.6S89.7,18.9,86,18.9z"/>
	<linearGradient id="SVGID_2_" gradientUnits="userSpaceOnUse" x1="82.4257" y1="12.2657" x2="89.5776" y2="12.2657">
		<stop  offset="0" style="stop-color:#F4AD21"/>
		<stop  offset="1" style="stop-color:#FFD600"/>
	</linearGradient>
	<circle class="st1" cx="86" cy="12.3" r="3.6"/>
	<linearGradient id="SVGID_3_" gradientUnits="userSpaceOnUse" x1="0.8592" y1="50.5" x2="99.7735" y2="50.5">
		<stop  offset="0" style="stop-color:#0C36D6"/>
		<stop  offset="1" style="stop-color:#00CCF8"/>
	</linearGradient>
	<path class="st2" d="M98.9,39.3H1.8c-0.5,0-0.9,0.4-0.9,0.9v20.6c0,0.5,0.4,0.9,0.9,0.9h97.1c0.5,0,0.9-0.4,0.9-0.9V40.2
		C99.8,39.7,99.4,39.3,98.9,39.3z M86,57.1c-3.7,0-6.6-3-6.6-6.6s3-6.6,6.6-6.6c3.6,0,6.6,3,6.6,6.6S89.7,57.1,86,57.1z"/>
	<linearGradient id="SVGID_4_" gradientUnits="userSpaceOnUse" x1="82.4257" y1="50.5" x2="89.5776" y2="50.5">
		<stop  offset="0" style="stop-color:#F4AD21"/>
		<stop  offset="1" style="stop-color:#FFD600"/>
	</linearGradient>
	<circle class="st3" cx="86" cy="50.5" r="3.6"/>
	<linearGradient id="SVGID_5_" gradientUnits="userSpaceOnUse" x1="0.8592" y1="88.7342" x2="99.7735" y2="88.7342">
		<stop  offset="0" style="stop-color:#0C36D6"/>
		<stop  offset="1" style="stop-color:#00CCF8"/>
	</linearGradient>
	<path class="st4" d="M98.9,77.5H1.8c-0.5,0-0.9,0.4-0.9,0.9V99c0,0.5,0.4,0.9,0.9,0.9h97.1c0.5,0,0.9-0.4,0.9-0.9V78.4
		C99.8,77.9,99.4,77.5,98.9,77.5z M86,95.4c-3.7,0-6.6-3-6.6-6.6s3-6.6,6.6-6.6c3.6,0,6.6,3,6.6,6.6S89.7,95.4,86,95.4z"/>
	<linearGradient id="SVGID_6_" gradientUnits="userSpaceOnUse" x1="82.4257" y1="88.7343" x2="89.5776" y2="88.7343">
		<stop  offset="0" style="stop-color:#F4AD21"/>
		<stop  offset="1" style="stop-color:#FFD600"/>
	</linearGradient>
	<circle class="st5" cx="86" cy="88.7" r="3.6"/>
	<g>
		<path class="st6" d="M86,18.9c3.6,0,6.6-3,6.6-6.6s-3-6.6-6.6-6.6c-3.7,0-6.6,3-6.6,6.6S82.4,18.9,86,18.9z M86,8.7
			c2,0,3.6,1.6,3.6,3.6c0,2-1.6,3.6-3.6,3.6s-3.6-1.6-3.6-3.6C82.4,10.3,84,8.7,86,8.7z"/>
		<path class="st6" d="M86,57.1c3.6,0,6.6-3,6.6-6.6s-3-6.6-6.6-6.6c-3.7,0-6.6,3-6.6,6.6S82.4,57.1,86,57.1z M86,46.9
			c2,0,3.6,1.6,3.6,3.6S88,54.1,86,54.1s-3.6-1.6-3.6-3.6S84,46.9,86,46.9z"/>
		<path class="st6" d="M86,95.4c3.6,0,6.6-3,6.6-6.6s-3-6.6-6.6-6.6c-3.7,0-6.6,3-6.6,6.6S82.4,95.4,86,95.4z M86,85.2
			c2,0,3.6,1.6,3.6,3.6c0,2-1.6,3.6-3.6,3.6s-3.6-1.6-3.6-3.6C82.4,86.8,84,85.2,86,85.2z"/>
		<path class="st6" d="M9.5,5.6C8.7,5.6,8,6.3,8,7.2v10.2c0,0.8,0.7,1.5,1.5,1.5c0.8,0,1.5-0.7,1.5-1.5V7.2
			C11.1,6.3,10.4,5.6,9.5,5.6z"/>
		<path class="st6" d="M19.7,5.6c-0.8,0-1.5,0.7-1.5,1.5v10.2c0,0.8,0.7,1.5,1.5,1.5c0.8,0,1.5-0.7,1.5-1.5V7.2
			C21.3,6.3,20.6,5.6,19.7,5.6z"/>
		<path class="st6" d="M29.9,5.6c-0.8,0-1.5,0.7-1.5,1.5v10.2c0,0.8,0.7,1.5,1.5,1.5c0.8,0,1.5-0.7,1.5-1.5V7.2
			C31.4,6.3,30.8,5.6,29.9,5.6z"/>
		<path class="st6" d="M40.1,5.6c-0.8,0-1.5,0.7-1.5,1.5v10.2c0,0.8,0.7,1.5,1.5,1.5s1.5-0.7,1.5-1.5V7.2C41.6,6.3,41,5.6,40.1,5.6z
			"/>
		<path class="st6" d="M98.9,26.5c2.2,0,4-1.8,4-4V2c0-2.2-1.8-4-4-4H1.8c-2.2,0-4,1.8-4,4v20.6c0,2.2,1.8,4,4,4h47v9.7h-47
			c-2.2,0-4,1.8-4,4v20.6c0,2.2,1.8,4,4,4h47v9.7h-47c-2.2,0-4,1.8-4,4V99c0,2.2,1.8,4,4,4h97.1c2.2,0,4-1.8,4-4V78.4
			c0-2.2-1.8-4-4-4h-47v-9.7h47c2.2,0,4-1.8,4-4V40.2c0-2.2-1.8-4-4-4h-47v-9.7H98.9z M99.8,78.4V99c0,0.5-0.4,0.9-0.9,0.9H1.8
			c-0.5,0-0.9-0.4-0.9-0.9V78.4c0-0.5,0.4-0.9,0.9-0.9h97.1C99.4,77.5,99.8,77.9,99.8,78.4z M99.8,40.2v20.6c0,0.5-0.4,0.9-0.9,0.9
			H1.8c-0.5,0-0.9-0.4-0.9-0.9V40.2c0-0.5,0.4-0.9,0.9-0.9h97.1C99.4,39.3,99.8,39.7,99.8,40.2z M0.9,22.6V2C0.9,1.5,1.3,1,1.8,1
			h97.1c0.5,0,0.9,0.4,0.9,0.9v20.6c0,0.5-0.4,0.9-0.9,0.9H1.8C1.3,23.5,0.9,23.1,0.9,22.6z"/>
		<path class="st6" d="M9.5,43.9c-0.8,0-1.5,0.7-1.5,1.5v10.2c0,0.8,0.7,1.5,1.5,1.5c0.8,0,1.5-0.7,1.5-1.5V45.4
			C11.1,44.6,10.4,43.9,9.5,43.9z"/>
		<path class="st6" d="M19.7,43.9c-0.8,0-1.5,0.7-1.5,1.5v10.2c0,0.8,0.7,1.5,1.5,1.5c0.8,0,1.5-0.7,1.5-1.5V45.4
			C21.3,44.6,20.6,43.9,19.7,43.9z"/>
		<path class="st6" d="M29.9,43.9c-0.8,0-1.5,0.7-1.5,1.5v10.2c0,0.8,0.7,1.5,1.5,1.5c0.8,0,1.5-0.7,1.5-1.5V45.4
			C31.4,44.6,30.8,43.9,29.9,43.9z"/>
		<path class="st6" d="M40.1,43.9c-0.8,0-1.5,0.7-1.5,1.5v10.2c0,0.8,0.7,1.5,1.5,1.5s1.5-0.7,1.5-1.5V45.4
			C41.6,44.6,41,43.9,40.1,43.9z"/>
		<path class="st6" d="M9.5,82.1c-0.8,0-1.5,0.7-1.5,1.5v10.2c0,0.8,0.7,1.5,1.5,1.5c0.8,0,1.5-0.7,1.5-1.5V83.6
			C11.1,82.8,10.4,82.1,9.5,82.1z"/>
		<path class="st6" d="M19.7,82.1c-0.8,0-1.5,0.7-1.5,1.5v10.2c0,0.8,0.7,1.5,1.5,1.5c0.8,0,1.5-0.7,1.5-1.5V83.6
			C21.3,82.8,20.6,82.1,19.7,82.1z"/>
		<path class="st6" d="M29.9,82.1c-0.8,0-1.5,0.7-1.5,1.5v10.2c0,0.8,0.7,1.5,1.5,1.5c0.8,0,1.5-0.7,1.5-1.5V83.6
			C31.4,82.8,30.8,82.1,29.9,82.1z"/>
		<path class="st6" d="M40.1,82.1c-0.8,0-1.5,0.7-1.5,1.5v10.2c0,0.8,0.7,1.5,1.5,1.5s1.5-0.7,1.5-1.5V83.6
			C41.6,82.8,41,82.1,40.1,82.1z"/>
	</g>
</g>
</svg>
