<?xml version="1.0" encoding="utf-8"?>
<!-- Generator: Adobe Illustrator 21.0.0, SVG Export Plug-In . SVG Version: 6.00 Build 0)  -->
<svg version="1.1" id="Layer_3" xmlns="http://www.w3.org/2000/svg" xmlns:xlink="http://www.w3.org/1999/xlink" x="0px" y="0px"
	 viewBox="0 0 100 100" style="enable-background:new 0 0 100 100;" xml:space="preserve">
<style type="text/css">
	.st0{fill:url(#SVGID_1_);}
	.st1{fill:url(#SVGID_2_);stroke:#FFFFFF;stroke-width:3;stroke-miterlimit:10;}
	.st2{fill:url(#SVGID_3_);stroke:#FFFFFF;stroke-width:3;stroke-miterlimit:10;}
	.st3{fill:#FFFFFF;enable-background:new    ;}
	.st4{fill:url(#SVGID_4_);}
	.st5{fill:#FFFFFF;}
</style>
<g>
	<g>
		<linearGradient id="SVGID_1_" gradientUnits="userSpaceOnUse" x1="4.152844e-08" y1="50" x2="100" y2="50">
			<stop  offset="0" style="stop-color:#F4AD21"/>
			<stop  offset="1" style="stop-color:#FFD600"/>
		</linearGradient>
		<path class="st0" d="M92.7,0H67.3c-1.9,0-3.8,0.8-5.1,2.1l-60,60C0.8,63.5,0,65.4,0,67.3v25.4c0,4,3.3,7.3,7.3,7.3c0,0,0,0,0,0
			h25.4c1.9,0,3.8-0.8,5.1-2.1l60-60c1.4-1.4,2.1-3.2,2.1-5.1V7.3C100,3.3,96.7,0,92.7,0C92.7,0,92.7,0,92.7,0z"/>
	</g>
	<linearGradient id="SVGID_2_" gradientUnits="userSpaceOnUse" x1="50" y1="75" x2="100" y2="75">
		<stop  offset="0" style="stop-color:#0C36D6"/>
		<stop  offset="1" style="stop-color:#00CCF8"/>
	</linearGradient>
	<path class="st1" d="M92.7,100H67.3c-1.9,0-3.8-0.8-5.1-2.1L50,85.7V63c0-7.2,5.8-13,13-13h0h22.7l12.2,12.2
		c1.4,1.4,2.1,3.2,2.1,5.1v25.4C100,96.7,96.7,100,92.7,100L92.7,100z"/>
	<linearGradient id="SVGID_3_" gradientUnits="userSpaceOnUse" x1="3.281912e-08" y1="25" x2="50" y2="25">
		<stop  offset="0" style="stop-color:#0C36D6"/>
		<stop  offset="1" style="stop-color:#00CCF8"/>
	</linearGradient>
	<path class="st2" d="M7.3,0h25.4c1.9,0,3.8,0.8,5.1,2.1L50,14.3V37c0,7.2-5.8,13-13,13l0,0H14.3L2.1,37.8C0.8,36.5,0,34.6,0,32.7
		V7.3C0,3.3,3.3,0,7.3,0z"/>
	<path class="st3" d="M46.5,31.3v38.5c0,2.9-3,5.2-6.7,5.3H0V26h39.8C43.5,26,46.5,28.4,46.5,31.3z"/>
	<linearGradient id="SVGID_4_" gradientUnits="userSpaceOnUse" x1="0" y1="50.2583" x2="42.8382" y2="50.2583">
		<stop  offset="0" style="stop-color:#0C36D6"/>
		<stop  offset="1" style="stop-color:#00CCF8"/>
	</linearGradient>
	<path class="st4" d="M3.6,28.8h35.7c2,0,3.6,1.6,3.6,3.6v35.7c0,2-1.6,3.6-3.6,3.6H3.6c-2,0-3.6-1.6-3.6-3.6V32.4
		C0,30.4,1.6,28.8,3.6,28.8z"/>
	<path class="st5" d="M29.7,44H19.3v6.1h9.8v3.9h-9.8v6.4h11v3.9H14.5V40.1h15.2L29.7,44z"/>
</g>
</svg>
