<?xml version="1.0" encoding="UTF-8"?> <!-- Generator: Adobe Illustrator 23.1.0, SVG Export Plug-In . SVG Version: 6.00 Build 0) --> <svg xmlns="http://www.w3.org/2000/svg" xmlns:xlink="http://www.w3.org/1999/xlink" id="Layer_1" x="0px" y="0px" viewBox="0 0 110 69" style="enable-background:new 0 0 110 69;" xml:space="preserve"> <style type="text/css"> .st0{fill-rule:evenodd;clip-rule:evenodd;fill:#E74C25;} </style> <title>sign-dark</title> <path class="st0" d="M53.3,34.6c-0.2-0.1-0.3-0.2-0.5-0.4c-0.2,0.1-0.4,0.3-0.6,0.4c-0.5,0.2-1.1,0.3-1.7,0.4c0-0.6,0-1.3,0.1-1.9 c0.1-0.4,0.4-0.7,0.6-1c2.3-3.6,4.7-7.1,6.9-10.8c1.2-2.1,1.9-4.7,0.4-6.7c-1.6-2.1-4.3-2.2-6.6-1.5c-3.7,1-7.4,2.1-10.9,3.7 c-10.4,4.8-19.8,11.3-28.1,19.3c-6,5.7-10.5,12.2-11.7,20.8c-0.9,6,2.9,9.2,7.8,9.7c8.3,0.9,15.5-2.3,22.2-6.9 c7.4-5.1,13.2-11.8,18.2-19.2C50.7,38.6,52,36.6,53.3,34.6L53.3,34.6L53.3,34.6z M84.3,22.9c-4.9,1.4-8.1,4.8-11.2,8.5l-0.7-0.3 c0.2-0.7,0.2-1.6,0.6-2.1c1.2-1.7,2.6-3.2,3.8-4.9c0.4-0.6,0.6-1.4,0.9-2.1c-0.2-0.2-0.4-0.4-0.6-0.5c-2,1.8-4.1,3.5-6,5.5 c-2.1,2.2-3.9,4.6-5.9,6.8c-0.5,0.5-1.2,0.8-1.8,1.2c0.1-0.8,0-1.7,0.3-2.2c2.2-3.2,4.5-6.3,6.7-9.5c0.5-0.7,0.9-1.6,1.4-2.4 l-0.3-0.5c-1,0.6-2,1.1-3,1.7C62,25.8,57.4,31.6,53.2,38c-5.8,9-12.4,17.3-21.4,23.4c-5.3,3.6-11,6.2-17.3,7.2 c-3.2,0.5-6.4,0.2-9.4-1.3C1,65.2-0.5,61.4,0.2,56.7c1.4-9.6,7-16.6,13.7-22.8c8.7-8,18.5-14.5,29.3-19.3c4.2-1.9,8.5-3.4,13.3-2.8 c2.9,0.4,4.6,2.1,4.7,5c0.1,3.8-1.6,6.9-3.7,9.8c-0.7,1-1.4,2.1-2,3.1c0.2,0.1,0.3,0.3,0.5,0.4c0.7-0.7,1.5-1.3,2.1-2.1 c2.8-3.8,5.5-7.6,8.2-11.4c0.2-0.2,0.4-0.5,0.4-0.7c-0.6-2.5,1.6-3,2.8-4.2c3.5-3.4,6.9-6.8,10.4-10.1c0.8-0.7,1.5-2.3,3.1-1.3 c-0.6,0.9-1,2.1-1.8,2.7c-6.5,5.2-11.8,11.6-16.6,18.4c-0.2,0.3-0.4,0.5-0.6,0.8c-0.1,0.2-0.1,0.4-0.4,1.1c1.5-0.9,2.6-1.6,3.7-2.3 c1.6-0.9,3.2-1.9,4.8-2.8c0.6-0.3,1.4-0.1,2.1-0.2c0,0.7,0,1.4-0.1,2.1c-0.2,0.7-0.6,1.4-1.1,2.5c1.6-0.9,2.8-1.7,4-2.3 c2.2-1,2.8-0.6,2.7,1.8c0,0.3,0,0.7-0.1,1.1c1.7-0.7,3.3-1.3,4.9-1.9c3-1,3.3-0.8,3.1,2.7c1.6-1.1,2.9-2,4.3-3 c0.9-0.7,1.7-1.6,2.6,0.2c0.6,1.2,2.5,0.6,4.1-1c3-3,6-6,9-9c0.6-0.6,1.3-1,2-1.5c0.2,0.1,0.4,0.2,0.5,0.4c-0.2,0.6-0.3,1.4-0.7,1.9 c-2.8,3.7-6.1,6.8-9.5,9.9c-3.9,3.5-7.2,7.6-10.5,11.7C83.7,40.6,78.5,47.6,73,54.5c-0.4,0.6-1.3,0.8-2,1.1c0.1-0.8,0-1.7,0.4-2.4 c2-4.1,4.9-7.5,8.2-10.5c1.3-1.2,2.5-2.6,3.7-3.9c0.3-0.4,0.4-0.9,0.5-1.4c-0.5-0.2-1-0.5-1.4-0.5c-4.6,0.4-9.3,1-13.9,1.4 c-3,0.2-6,0.3-8.9,0.3c-0.5,0-1-0.4-2.1-0.9c1.2-0.4,1.8-0.7,2.3-0.8c8.2-0.6,16.5-1.1,24.7-1.8c0.9-0.1,1.9-0.6,2.5-1.3 c2.2-2.6,4.3-5.3,6.3-8c0.4-0.5,0.4-1.4,0.5-2.1C93,23.6,92,23,91.2,23.3c-1.3,0.4-2.4,1.4-3.6,2C84.2,26.8,84.1,26.7,84.3,22.9 L84.3,22.9L84.3,22.9z"></path> </svg> 