<?xml version="1.0" encoding="UTF-8"?> <!-- Generator: Adobe Illustrator 24.0.2, SVG Export Plug-In . SVG Version: 6.00 Build 0) --> <svg xmlns="http://www.w3.org/2000/svg" xmlns:xlink="http://www.w3.org/1999/xlink" version="1.1" id="Layer_1" x="0px" y="0px" viewBox="0 0 485.7 114.8" style="enable-background:new 0 0 485.7 114.8;" xml:space="preserve"> <style type="text/css"> .st0{fill:#EDEDED;} </style> <path class="st0" d="M624.4,439.6l-132.8-47.8l30.2,42.3c-25.1,2.2-50,5.7-74.2,10.5c-17.8,3.5-31.8,7-43,9.8 c-27.3,6.8-35.8,8.5-49.1,2.6c-18.5-8.2-28.4-23.6-38.8-39.9c-11.4-17.8-23.2-36.3-46.2-41.3c-30.7-6.7-62.1,14.4-96.1,64.7 l24.9,16.8c25.2-37.3,48.2-55.8,64.8-52.2c10.4,2.3,17.1,12.2,27.4,28.1c11.2,17.5,25.2,39.4,51.9,51.2c13.3,5.9,24.5,7,37,5.6 c9.4-1.1,19.4-3.6,31.5-6.6c10.9-2.7,24.5-6.1,41.5-9.5c24.2-4.8,48.9-8.2,74-10.3l-21.7,52.2L624.4,439.6z"></path> <path class="st0" d="M384.7,0.6c-2.8-1.9-6.5,1-5.2,4.2l13.3,34.1c0.6,1.5-0.6,3-2.1,2.9c-36.1-2.4-71.3-0.2-104.7,6.6 c-18,3.7-31.2,7.8-41.7,11c-17.3,5.4-26,8-40.1,5c-17.5-3.8-27.7-13.1-37.5-22.1c-11.6-10.7-24.8-22.8-46.5-20.1 C102.5,24.4,91.8,35,82.3,44.4c-9.1,9-17.7,17.5-33.6,21.1c-9.6,2.2-19.9,2.2-30.6-0.1C9.8,63.7,1.7,69.1,0.2,77.5 c-1.4,8.1,4.2,15.7,12.3,17.4c7.2,1.5,14.4,2.2,21.4,2.2c7.3,0,14.5-0.8,21.5-2.4c24.1-5.5,37.3-18.5,47.9-29 c8.5-8.4,13.3-12.9,20.5-13.7c7.3-0.9,11.7,2.5,22.5,12.4c11,10.1,26,23.9,51.5,29.4c21.8,4.7,36.6,0.1,55.3-5.7 c10.5-3.2,22.3-6.9,38.9-10.3c30.8-6.3,63.3-8.3,96.7-6.1c1.7,0.1,2.6,2,1.6,3.4l-24.9,34.1c-2,2.7,0.7,6.5,3.9,5.4l112.5-37.8 c4.4-1.5,5.2-7.3,1.3-9.9L384.7,0.6z"></path> </svg> 